<?xml version="1.0" encoding="UTF-8"?>
<svg version="1.1" xmlns="http://www.w3.org/2000/svg" width="512" height="512">
<path d="M0 0 C17.46388141 8.51073783 32.53744593 23.95333537 39.41347218 42.25774479 C41.48626949 48.62572956 42.2655351 55.2007556 42.80263996 61.85112858 C42.85733133 62.52540394 42.91202271 63.1996793 42.96837139 63.89438725 C44.00435732 79.10212551 41.56740073 94.1310195 40.06435871 109.25737858 C61.18435871 109.25737858 82.30435871 109.25737858 104.06435871 109.25737858 C104.39435871 171.95737858 104.72435871 234.65737858 105.06435871 299.25737858 C121.89435871 282.42737858 138.72435871 265.59737858 156.06435871 248.25737858 C163.48214569 244.54848509 170.4120454 243.7596047 178.54092121 245.91362858 C184.26348627 248.47663069 188.43916535 252.97348272 191.20107746 258.55425358 C192.24242918 261.81495669 192.43772156 264.64797314 192.50185871 268.06987858 C192.54181965 269.23132389 192.58178059 270.3927692 192.62295246 271.58940983 C191.26915858 280.47900742 184.45961413 286.252559 178.25185871 292.25737858 C177.46359699 293.03210514 176.67533527 293.8068317 175.86318684 294.60503483 C173.93707223 296.49612917 172.00166094 298.37774687 170.06435871 300.25737858 C177.32435871 300.58737858 184.58435871 300.91737858 192.06435871 301.25737858 C192.06435871 327.65737858 192.06435871 354.05737858 192.06435871 381.25737858 C183.46373371 380.78300358 174.86310871 380.30862858 166.00185871 379.81987858 C147.01749268 379.86827161 132.43667151 381.0761494 117.12685871 392.81987858 C98.33612512 420.78580938 98.33612512 420.78580938 104.06435871 493.25737858 C-30.57564129 493.25737858 -165.21564129 493.25737858 -303.93564129 493.25737858 C-299.65898806 488.26794981 -297.87084956 486.19389377 -293.12045574 482.83159733 C-287.48582833 477.19955545 -287.93086176 470.82314159 -287.85271454 463.29877567 C-287.86656989 459.88831014 -287.92277084 456.47989251 -287.97861004 453.06987858 C-287.98311844 450.68291995 -287.98307223 448.29594877 -287.97868633 445.90898991 C-287.97672634 439.63848348 -288.02491664 433.36945793 -288.08725262 427.09929752 C-288.18098468 417.06518444 -288.20896849 407.03098377 -288.21688557 396.9964838 C-288.22842357 393.5013636 -288.26778709 390.00736675 -288.31044292 386.51250553 C-288.32072073 384.3584567 -288.33018824 382.2044038 -288.33871746 380.05034733 C-288.35788723 379.08696445 -288.377057 378.12358158 -288.39680767 377.13100529 C-288.38945674 369.76610493 -286.59779622 364.02066815 -282.33017254 357.98784733 C-276.01635643 351.82992791 -270.27874343 349.03881012 -261.37314129 349.00737858 C-259.55983413 349.0707651 -257.74669915 349.14706033 -255.93564129 349.25737858 C-255.60564129 347.27737858 -255.27564129 345.29737858 -254.93564129 343.25737858 C-253.94564129 342.92737858 -252.95564129 342.59737858 -251.93564129 342.25737858 C-252.29915691 341.36429996 -252.66267254 340.47122135 -253.03720379 339.55107975 C-254.38424776 336.23776152 -255.72444749 332.92171101 -257.06259441 329.60479069 C-257.64276002 328.16946486 -258.22478023 326.73488723 -258.80868816 325.30107975 C-259.64756181 323.24027537 -260.47973368 321.17687424 -261.31064129 319.11284733 C-261.57312664 318.47211781 -261.83561199 317.83138828 -262.10605145 317.17124271 C-263.23165426 314.35829729 -263.93564129 312.32019562 -263.93564129 309.25737858 C-248.09564129 309.25737858 -232.25564129 309.25737858 -215.93564129 309.25737858 C-215.88558793 293.6014541 -215.86873395 277.94662162 -215.91229534 262.29074097 C-215.9314616 255.02104174 -215.93578191 247.75190514 -215.90487957 240.48223209 C-215.8779756 234.14423133 -215.87920521 227.80695945 -215.91390038 221.46898562 C-215.93129057 218.11426632 -215.93480781 214.76085209 -215.90460491 211.40619564 C-215.87792268 207.65612814 -215.90096824 203.90941089 -215.93564129 200.15947819 C-215.91622982 199.05320576 -215.89681835 197.94693333 -215.87681866 196.80713749 C-215.95041162 191.00006354 -215.95041162 191.00006354 -218.70838451 186.06958866 C-220.81049211 184.182751 -220.81049211 184.182751 -223.0127058 182.6524353 C-225.66828471 180.72585834 -227.07584998 178.3520159 -228.77939129 175.57769108 C-234.6656941 167.36276975 -240.7450265 159.82931585 -251.04617596 157.5773859 C-268.55711447 155.15039474 -286.37239078 156.63749915 -303.93564129 157.25737858 C-303.93564129 130.85737858 -303.93564129 104.45737858 -303.93564129 77.25737858 C-289.38972415 76.65372078 -274.87828662 76.05198067 -260.32974148 75.74976254 C-252.51262009 75.58482647 -244.70543362 75.37640513 -236.89560223 74.99419498 C-185.42078393 72.522734 -185.42078393 72.522734 -170.0807848 86.06603909 C-163.48381669 92.43163714 -157.90987818 99.57594521 -152.93564129 107.25737858 C-153.02748196 106.57247852 -153.11932262 105.88757847 -153.21394634 105.18192387 C-156.69172797 77.76768346 -158.71659108 47.84985386 -141.30757713 24.60651588 C-110.79480057 -13.94315358 -43.19006648 -19.11803117 0 0 Z " fill="#83C60C" transform="translate(311.9356412887573,10.742621421813965)"/>
<path d="M0 0 C0.33 0 0.66 0 1 0 C1.33 62.37 1.66 124.74 2 189 C18.83 172.17 35.66 155.34 53 138 C60.41778698 134.29110651 67.34768669 133.50222613 75.4765625 135.65625 C81.19912756 138.21925211 85.37480664 142.71610414 88.13671875 148.296875 C89.17807047 151.55757812 89.37336285 154.39059456 89.4375 157.8125 C89.47746094 158.97394531 89.51742188 160.13539063 89.55859375 161.33203125 C88.20479987 170.22162885 81.39525542 175.99518042 75.1875 182 C74.39923828 182.77472656 73.61097656 183.54945313 72.79882812 184.34765625 C70.87271352 186.23875059 68.93730223 188.12036829 67 190 C74.26 190.33 81.52 190.66 89 191 C89 217.4 89 243.8 89 271 C80.399375 270.525625 71.79875 270.05125 62.9375 269.5625 C43.95313397 269.61089303 29.37231279 270.81877082 14.0625 282.5625 C-4.72823359 310.5284308 -4.72823359 310.5284308 1 383 C-59.72 383 -120.44 383 -183 383 C-183 372.44 -183 361.88 -183 351 C-190.92 351 -198.84 351 -207 351 C-207 340.44 -207 329.88 -207 319 C-220.2 319 -233.4 319 -247 319 C-247 318.01 -247 317.02 -247 316 C-245.89205078 315.5978125 -245.89205078 315.5978125 -244.76171875 315.1875 C-230.61517619 309.72301596 -219.83956111 301.41931571 -213.1875 287.5625 C-212.43172402 285.7190194 -211.70132129 283.86487707 -211 282 C-210.6803125 281.21882813 -210.360625 280.43765625 -210.03125 279.6328125 C-208.41146773 274.93844351 -207.92970606 270.87605558 -208.27734375 265.94140625 C-209.37121424 249.38903874 -209.37121424 249.38903874 -203.8125 242.66918945 C-201.50938056 240.22565941 -199.1340844 237.88585238 -196.67138672 235.60351562 C-194.23252822 233.26369345 -192.21749025 230.71709769 -190.125 228.0625 C-188.76182669 226.36543201 -187.38550924 224.67888219 -186 223 C-185.3509243 222.0213372 -185.3509243 222.0213372 -184.68873596 221.02290344 C-182.25949082 217.69100257 -180.3834775 215.37590943 -176.31414795 214.2702179 C-173.06674785 214.01227632 -169.90135901 213.99643224 -166.64453125 214.0703125 C-165.46533615 214.06417938 -164.28614105 214.05804626 -163.07121277 214.05172729 C-159.31720414 214.03883039 -155.56621799 214.07975418 -151.8125 214.125 C-148.04879145 214.13845641 -144.28537707 214.14076937 -140.52165222 214.13400269 C-138.18332726 214.13322195 -135.8449498 214.14604249 -133.50679016 214.17385864 C-131.9194532 214.18278641 -131.9194532 214.18278641 -130.30004883 214.19189453 C-128.90608635 214.20810349 -128.90608635 214.20810349 -127.48396301 214.22463989 C-124.82766693 213.98441487 -123.23440722 213.43648483 -121 212 C-119.61449803 209.22899606 -119.8122533 207.0665294 -120 204 C-121.72226496 200.75150023 -121.72226496 200.75150023 -125 200 C-126.33451263 199.88764839 -127.67354389 199.82424351 -129.01245117 199.79467773 C-129.81305466 199.77473251 -130.61365814 199.75478729 -131.43852234 199.73423767 C-132.29798965 199.71752518 -133.15745697 199.70081268 -134.04296875 199.68359375 C-134.9265657 199.66281265 -135.81016266 199.64203156 -136.72053528 199.62062073 C-139.54277785 199.55524246 -142.36511335 199.49629472 -145.1875 199.4375 C-147.10092106 199.39430363 -149.01433273 199.35068898 -150.92773438 199.30664062 C-155.61839437 199.19957305 -160.30914783 199.09827248 -165 199 C-164.53134521 198.23397461 -164.06269043 197.46794922 -163.57983398 196.67871094 C-161.94625243 194.02365434 -161.94625243 194.02365434 -160.72265625 191.140625 C-158.62616142 187.49025753 -156.80428151 184.84148023 -153 183 C-144.74595194 181.49417635 -136.23498346 181.84983758 -127.8815918 182.14428711 C-124.96524471 181.99825973 -123.40653126 181.61382456 -121 180 C-119.61449803 177.22899606 -119.8122533 175.0665294 -120 172 C-121.72226496 168.75150023 -121.72226496 168.75150023 -125 168 C-127.39254576 167.77439324 -129.78928123 167.59151405 -132.1875 167.4375 C-133.45980469 167.35371094 -134.73210937 167.26992188 -136.04296875 167.18359375 C-137.01878906 167.12300781 -137.99460937 167.06242188 -139 167 C-138.15047066 165.82995226 -137.29499479 164.6642227 -136.4375 163.5 C-135.72400391 162.52546875 -135.72400391 162.52546875 -134.99609375 161.53125 C-134.33738281 160.6959375 -133.67867188 159.860625 -133 159 C-132.60161926 158.35171234 -132.20323853 157.70342468 -131.79278564 157.03549194 C-129.23757796 153.38524742 -127.31327075 151.30802057 -122.8863678 150.26971436 C-118.99138766 150.01111573 -115.13714235 149.99586057 -111.23828125 150.0703125 C-109.8005411 150.06786837 -108.36280286 150.06161076 -106.9250946 150.05172729 C-103.15637598 150.03468189 -99.38946061 150.06339136 -95.62097168 150.10369873 C-89.58041849 150.15943753 -83.53949677 150.14038304 -77.49876976 150.13042831 C-75.39354866 150.13277871 -73.2890097 150.15168833 -71.18391418 150.17385864 C-69.90546127 150.17981049 -68.62700836 150.18576233 -67.30981445 150.19189453 C-66.18509232 150.2027005 -65.06037018 150.21350647 -63.90156555 150.22463989 C-61.01851092 150.00143312 -59.38856612 149.59368834 -57 148 C-55.61449803 145.22899606 -55.8122533 143.0665294 -56 140 C-57.72226496 136.75150023 -57.72226496 136.75150023 -61 136 C-62.67150987 135.88486168 -64.3469963 135.82363216 -66.0222168 135.79467773 C-67.04304855 135.77473251 -68.06388031 135.75478729 -69.11564636 135.73423767 C-70.21572525 135.71752518 -71.31580414 135.70081268 -72.44921875 135.68359375 C-74.14084892 135.6524221 -74.14084892 135.6524221 -75.86665344 135.62062073 C-79.4735396 135.55517153 -83.08049929 135.49626156 -86.6875 135.4375 C-89.13086702 135.39431039 -91.57422656 135.35069596 -94.01757812 135.30664062 C-100.01164074 135.19949484 -106.00577671 135.09771971 -112 135 C-111.39687737 134.21110886 -111.39687737 134.21110886 -110.78157043 133.40628052 C-107.47930583 129.08140143 -107.47930583 129.08140143 -104.55737305 124.49951172 C-102.61131076 121.43035073 -100.77090036 119.4016877 -97.11480713 118.5723877 C-91.36631834 117.87521849 -85.59118035 118.02467754 -79.8125 118.125 C-77.19002707 118.13847944 -74.5679769 118.14075476 -71.94548035 118.13400269 C-70.31937849 118.13322495 -68.69319926 118.14593232 -67.06733704 118.17385864 C-61.70897112 118.25312484 -61.70897112 118.25312484 -57 116 C-55.61449803 113.22899606 -55.8122533 111.0665294 -56 108 C-57.72226496 104.75150023 -57.72226496 104.75150023 -61 104 C-62.84466442 103.85110253 -64.69357275 103.7520899 -66.54296875 103.68359375 C-67.61611328 103.64169922 -68.68925781 103.59980469 -69.79492188 103.55664062 C-70.91447266 103.51732422 -72.03402344 103.47800781 -73.1875 103.4375 C-74.31865234 103.39431641 -75.44980469 103.35113281 -76.61523438 103.30664062 C-79.41003354 103.20050901 -82.20492162 103.09845615 -85 103 C-75.93918058 87.81398359 -75.93918058 87.81398359 -69.8828125 86.13671875 C-66.6875 85.9375 -66.6875 85.9375 -63.69921875 86.02734375 C-60.82151022 85.99819185 -59.38124776 85.57478398 -57 84 C-55.59542263 81.19084526 -55.75104843 79.11189466 -56 76 C-57.37926773 73.65738392 -57.37926773 73.65738392 -59 72 C-57.29957397 67.85584795 -54.3584817 64.75620163 -51.4375 61.4375 C-50.34276361 60.17793997 -49.24902202 58.91751466 -48.15625 57.65625 C-47.61742187 57.03492188 -47.07859375 56.41359375 -46.5234375 55.7734375 C-44.4521603 53.36225841 -42.44078991 50.90532091 -40.4375 48.4375 C-37.17221697 44.41641909 -33.85442156 40.44654838 -30.5 36.5 C-27.12716411 32.53096457 -23.78823355 28.53982979 -20.5 24.5 C-16.25904934 19.29034298 -11.92778392 14.16173527 -7.578125 9.04296875 C-6.24031135 7.46394325 -4.90446472 5.8829726 -3.59570312 4.27978516 C-2.41694497 2.83677885 -1.21084934 1.41618568 0 0 Z " fill="#479F34" transform="translate(415,121)"/>
<path d="M0 0 C15.8066642 7.80072653 28.58164441 21.29535589 34.53081799 37.96173 C37.50307258 47.53326133 38.09872195 57.58433092 38.64904308 67.53692532 C38.70373446 68.5218446 38.75842583 69.50676388 38.81477451 70.5215292 C39.88784165 93.65013552 37.39632104 116.7762038 35.91076183 139.81817532 C-27.44923817 139.81817532 -90.80923817 139.81817532 -156.08923817 139.81817532 C-156.08923817 129.25817532 -156.08923817 118.69817532 -156.08923817 107.81817532 C-177.20923817 107.81817532 -198.32923817 107.81817532 -220.08923817 107.81817532 C-222.05216993 127.67317929 -222.05216993 127.67317929 -215.19080067 145.66973782 C-211.48288365 149.50316533 -207.38870346 152.75338503 -203.17102528 156.00372219 C-198.70442245 159.89674344 -195.94005874 164.3815725 -195.52673817 170.31817532 C-195.83045926 175.07099994 -197.25456696 178.98660139 -200.08923817 182.81817532 C-204.36450487 186.22093861 -207.94782935 187.95514094 -213.40173817 188.06817532 C-214.50968739 188.10684719 -214.50968739 188.10684719 -215.64001942 188.14630032 C-220.40766869 187.50757218 -223.42458769 185.6325404 -226.45203114 181.92315578 C-227.24727417 180.76200144 -228.04028159 179.59931383 -228.83142567 178.43536282 C-236.81478266 167.77513781 -245.10169898 157.6488438 -258.8851366 155.4070425 C-275.33133954 153.65307584 -291.54294678 155.03025668 -308.08923817 155.81817532 C-308.08923817 129.41817532 -308.08923817 103.01817532 -308.08923817 75.81817532 C-293.54332103 75.21451752 -279.0318835 74.61277741 -264.48333836 74.31055927 C-256.66621697 74.14562321 -248.85903049 73.93720187 -241.0491991 73.55499172 C-189.57438081 71.08353074 -189.57438081 71.08353074 -174.23438168 84.62683582 C-167.63741356 90.99243387 -162.06347505 98.13674195 -157.08923817 105.81817532 C-157.18107883 105.13327526 -157.2729195 104.44837521 -157.36754322 103.7427206 C-160.84532485 76.3284802 -162.87018795 46.41065059 -145.46117401 23.16731262 C-113.80531538 -16.82652027 -44.20533228 -20.04079945 0 0 Z " fill="#EEEDEE" transform="translate(316.0892381668091,12.181824684143066)"/>
<path d="M0 0 C31.68 0 63.36 0 96 0 C95.01 2.97 94.02 5.94 93 9 C93.66 8.67 94.32 8.34 95 8 C112.87175978 6.54193102 128.12206686 10.83690568 142.1875 22.25 C152.44377757 31.67915841 159.06669133 45.09710385 160.37109375 58.9375 C160.88595539 76.06397491 155.69470028 91.34471005 143.9765625 104.12109375 C137.85830697 109.93706392 128.8043636 117 120 117 C120 117.99 120 118.98 120 120 C133.2 120 146.4 120 160 120 C160 130.56 160 141.12 160 152 C167.92 152 175.84 152 184 152 C184 162.56 184 173.12 184 184 C110.08 184 36.16 184 -40 184 C-35.72334677 179.01057123 -33.93520827 176.9365152 -29.18481445 173.57421875 C-23.55018704 167.94217688 -23.99522047 161.56576301 -23.91707325 154.04139709 C-23.9309286 150.63093157 -23.98712955 147.22251393 -24.04296875 143.8125 C-24.04747715 141.42554137 -24.04743094 139.03857019 -24.04304504 136.65161133 C-24.04108505 130.3811049 -24.08927535 124.11207935 -24.15161133 117.84191895 C-24.24534339 107.80780586 -24.27332721 97.7736052 -24.28124428 87.73910522 C-24.29278228 84.24398502 -24.3321458 80.74998817 -24.37480164 77.25512695 C-24.38507944 75.10107812 -24.39454695 72.94702522 -24.40307617 70.79296875 C-24.42224594 69.82958588 -24.44141571 68.866203 -24.46116638 67.87362671 C-24.45381545 60.50872635 -22.66215493 54.76328957 -18.39453125 48.73046875 C-12.08071514 42.57254934 -6.34310214 39.78143154 2.5625 39.75 C4.37580716 39.81338652 6.18894214 39.88968175 8 40 C8.33 38.02 8.66 36.04 9 34 C9.99 33.67 10.98 33.34 12 33 C11.63648438 32.10692139 11.27296875 31.21384277 10.8984375 30.29370117 C9.55139353 26.98038294 8.2111938 23.66433243 6.87304688 20.34741211 C6.29288127 18.91208628 5.71086106 17.47750865 5.12695312 16.04370117 C4.28807948 13.98289679 3.45590761 11.91949566 2.625 9.85546875 C2.36251465 9.21473923 2.1000293 8.5740097 1.82958984 7.91386414 C0.70398703 5.10091871 0 3.06281705 0 0 Z " fill="#FEEB00" transform="translate(48,320)"/>
<path d="M0 0 C94.68330625 -8.8958333 94.68330625 -8.8958333 120.64208984 11.89599609 C137.61361212 26.56446382 144.62129108 42.95924472 146.35519409 65.2130127 C146.49329883 67.38103088 146.62249613 69.54963734 146.7421875 71.71875 C146.79676243 72.70366928 146.85133736 73.68858856 146.90756607 74.70335388 C147.97747698 97.83091763 145.48539418 120.96058822 144 144 C112.32 144 80.64 144 48 144 C48.804375 129.129375 49.60875 114.25875 50.4375 98.9375 C51.60115323 60.26376912 51.60115323 60.26376912 33.34474182 27.73347473 C23.94748421 18.05040074 13.05149796 9.61936203 1.77757263 2.25856018 C1.19097366 1.84323532 0.60437469 1.42791046 0 1 C0 0.67 0 0.34 0 0 Z " fill="#C4D4DE" transform="translate(208,8)"/>
<path d="M0 0 C0.309375 0.94875 0.61875 1.8975 0.9375 2.875 C3.26242495 6.39761356 3.77503367 6.53837198 7.6875 7.375 C9.12117128 7.60822882 10.5581019 7.82467486 12 8 C11.62488281 8.43570312 11.24976563 8.87140625 10.86328125 9.3203125 C9.79361914 10.5651082 8.72879742 11.81407406 7.66796875 13.06640625 C6.63462369 14.26431212 5.5784133 15.44337412 4.48828125 16.58984375 C2.1731365 19.09073078 1.04641095 20.74216139 0.4375 24.125 C1.14212062 27.72639431 1.97647589 28.93127298 5 31 C7.82491198 31.91955603 7.82491198 31.91955603 11 31 C14.00159149 29.0146424 16.45514744 26.53225428 19 24 C19.75748535 23.25290771 19.75748535 23.25290771 20.53027344 22.49072266 C24.04746533 19.02038501 27.53228048 15.51973531 31 12 C31.556875 12.28875 32.11375 12.5775 32.6875 12.875 C35.08494645 14.0413253 37.51596939 15.0339881 40 16 C40.01417969 16.969375 40.02835937 17.93875 40.04296875 18.9375 C40.46502333 33.20114883 43.58051931 46.19911062 52 58 C53.0828125 59.546875 53.0828125 59.546875 54.1875 61.125 C63.12422036 71.20379325 75.87606832 77.0926173 89 79 C89 79.33 89 79.66 89 80 C72.83 80 56.66 80 40 80 C40 90.56 40 101.12 40 112 C47.92 112 55.84 112 64 112 C64 122.56 64 133.12 64 144 C27.04 144 -9.92 144 -48 144 C-43.72334677 139.01057123 -41.93520827 136.9365152 -37.18481445 133.57421875 C-31.55018704 127.94217688 -31.99522047 121.56576301 -31.91707325 114.04139709 C-31.9309286 110.63093157 -31.98712955 107.22251393 -32.04296875 103.8125 C-32.04747715 101.42554137 -32.04743094 99.03857019 -32.04304504 96.65161133 C-32.04108505 90.3811049 -32.08927535 84.11207935 -32.15161133 77.84191895 C-32.24534339 67.80780586 -32.27332721 57.7736052 -32.28124428 47.73910522 C-32.29278228 44.24398502 -32.3321458 40.74998817 -32.37480164 37.25512695 C-32.38507944 35.10107812 -32.39454695 32.94702522 -32.40307617 30.79296875 C-32.42224594 29.82958588 -32.44141571 28.866203 -32.46116638 27.87362671 C-32.45381545 20.50872635 -30.66215493 14.76328957 -26.39453125 8.73046875 C-18.36229453 0.89655887 -11.07617992 -0.67469116 0 0 Z " fill="#FAE1BB" transform="translate(56,360)"/>
<path d="M0 0 C14.52991683 -0.62395672 29.0229197 -1.24570124 43.55564594 -1.55786991 C51.36477467 -1.72824941 59.16327411 -1.94346163 66.96459961 -2.33862305 C118.35050318 -4.89192984 118.35050318 -4.89192984 134.14847851 9.05995464 C140.97920504 15.63840142 146.92838817 22.99291867 152 31 C152 31.33 152 31.66 152 32 C130.88 32 109.76 32 88 32 C86.03706824 51.85500397 86.03706824 51.85500397 92.8984375 69.8515625 C96.60635451 73.68499002 100.70053471 76.93520971 104.91821289 80.18554688 C109.38481571 84.07856812 112.14917943 88.56339719 112.5625 94.5 C112.25877891 99.25282462 110.83467121 103.16842607 108 107 C103.72473329 110.4027633 100.14140882 112.13696562 94.6875 112.25 C93.94886719 112.27578125 93.21023437 112.3015625 92.44921875 112.328125 C87.68156948 111.68939687 84.66465047 109.81436509 81.63720703 106.10498047 C80.84196399 104.94382612 80.04895658 103.78113851 79.2578125 102.6171875 C71.27445551 91.95696249 62.98753919 81.83066849 49.20410156 79.58886719 C32.75789863 77.83490053 16.54629139 79.21208136 0 80 C0 53.6 0 27.2 0 0 Z " fill="#F9C7B1" transform="translate(8,88)"/>
<path d="M0 0 C3.13489414 1.37596211 4.15152963 2.19040243 6.390625 5.00390625 C9.71649255 9.38530285 9.71649255 9.38530285 17 15 C24.92 15.33 32.84 15.66 41 16 C41 42.4 41 68.8 41 96 C30.44 96 19.88 96 9 96 C8.67 72.9 8.34 49.8 8 26 C4.1946875 29.81691406 0.389375 33.63382812 -3.53125 37.56640625 C-5.95545091 39.99572183 -8.37980029 42.42488557 -10.8046875 44.85351562 C-14.64631658 48.70110262 -18.48740957 52.54921371 -22.32519531 56.40063477 C-25.42228825 59.50866134 -28.52187867 62.61417754 -31.62315369 65.71803093 C-32.80085445 66.89756718 -33.97768069 68.07797732 -35.15357971 69.25930977 C-46.32085536 80.47608858 -46.32085536 80.47608858 -52.34484863 85.57237244 C-56.61906157 89.25903477 -60.47339053 93.34560288 -64.15942383 97.61279297 C-70.88961286 105.33256262 -77.85108127 112.82197642 -84.93432617 120.21826172 C-86.76328862 122.13587718 -88.54875013 124.0766356 -90.32788086 126.04248047 C-103.84275286 140.93713977 -114.94289136 147.22895382 -135.00747681 149.60882568 C-138.44214001 150.05779531 -141.7480259 150.77920846 -145.1035614 151.62649536 C-147 152 -147 152 -151 152 C-150.77312357 149.95811212 -150.54434528 147.91642685 -150.30908203 145.87548828 C-150.09282401 143.86357127 -149.90611522 141.84835852 -149.74169922 139.83154297 C-147.67206468 116.79660897 -139.54370422 105.40936612 -122.10791016 90.72705078 C-121.4122998 90.15712402 -120.71668945 89.58719727 -120 89 C-118 92 -118 92 -116.6875 94.9375 C-114.54008899 98.83465331 -111.96003661 101.01998169 -108 103 C-102.31668392 103.59106487 -97.85222997 103.27243416 -93 100 C-90.05628752 97.14039359 -88.88579205 94.75649454 -87.90141296 90.87757874 C-85.96212422 84.94609037 -82.16326525 81.36252273 -77.76489258 77.08374023 C-76.92564743 76.24361893 -76.08640228 75.40349762 -75.22172546 74.53791809 C-72.93508232 72.25472014 -70.63575937 69.985328 -68.32991624 67.72155261 C-65.9168007 65.34613904 -63.52085031 62.95353431 -61.12297058 60.5627594 C-56.5876086 56.04598936 -52.03718198 51.54472268 -47.4810397 47.04892546 C-42.29142338 41.9265509 -37.1189887 36.7869729 -31.94787371 31.64593208 C-21.31749079 21.07813599 -10.66589401 10.53196342 0 0 Z " fill="#BC141C" transform="translate(463,296)"/>
<path d="M0 0 C5.72256506 2.56300211 9.89824414 7.05985414 12.66015625 12.640625 C13.70150797 15.90132812 13.89680035 18.73434456 13.9609375 22.15625 C14.00089844 23.31769531 14.04085937 24.47914063 14.08203125 25.67578125 C12.69439933 34.78757408 5.55896098 40.6911274 -0.7890625 46.84375 C-1.62501953 47.66617188 -2.46097656 48.48859375 -3.32226562 49.3359375 C-5.36698379 51.34560336 -7.41839613 53.34787487 -9.4765625 55.34375 C-13.6179458 51.8629326 -17.61447101 48.32679674 -21.4140625 44.46875 C-22.18621094 43.68757813 -22.95835937 42.90640625 -23.75390625 42.1015625 C-24.32238281 41.52148438 -24.89085937 40.94140625 -25.4765625 40.34375 C-28.57816498 41.72636739 -30.7160886 43.32421537 -33.12635803 45.70593262 C-33.83431015 46.40101929 -34.54226227 47.09610596 -35.27166748 47.81225586 C-36.03803528 48.57481689 -36.80440308 49.33737793 -37.59399414 50.12304688 C-38.4090593 50.92657593 -39.22412445 51.73010498 -40.06388855 52.5579834 C-42.76061746 55.22037987 -45.44936391 57.89064357 -48.13671875 60.5625 C-49.05604124 61.47491959 -49.97536373 62.38733917 -50.92254448 63.32740784 C-55.28673175 67.65944347 -59.64704484 71.99529865 -64.00128371 76.3373332 C-69.01489429 81.33670582 -74.04294403 86.32093243 -79.08403879 91.2925868 C-83.45937417 95.60973315 -87.81517359 99.94612248 -92.16439629 104.28956604 C-94.01208507 106.12936698 -95.86564086 107.9632956 -97.72517586 109.79112244 C-100.32979324 112.35423606 -102.91131436 114.93866678 -105.48852539 117.52929688 C-106.25691742 118.27566406 -107.02530945 119.02203125 -107.81698608 119.79101562 C-112.23812815 124.29061335 -114.48251528 127.89973896 -115.75934505 134.11823273 C-117.01301655 138.00836057 -120.08255176 140.25334793 -123.4765625 142.34375 C-127.54703597 143.70057449 -131.22047967 143.86847254 -135.4765625 143.34375 C-140.7800853 140.64195537 -144.57488548 137.04878105 -146.4765625 131.34375 C-152.48761304 84.97581156 -152.48761304 84.97581156 -141.62458801 68.82139587 C-136.65935669 62.45575234 -130.43605913 57.27792739 -122.4765625 55.34375 C-118.95258926 55.06683616 -115.54166148 55.26240694 -112.0234375 55.55859375 C-111.08305634 55.63710068 -110.14267517 55.7156076 -109.17379761 55.79649353 C-107.20319284 55.97010653 -105.23272557 56.14528652 -103.26239014 56.32192993 C-101.75965546 56.45648087 -101.75965546 56.45648087 -100.2265625 56.59375 C-98.71488495 56.73929825 -98.71488495 56.73929825 -97.17266846 56.88778687 C-84.57199366 57.833565 -75.2151053 55.92026923 -65.48137665 47.83449554 C-52.54933639 36.59023842 -40.93622303 23.63515143 -29.85879517 10.58590698 C-29.40327396 10.05434368 -28.94775276 9.52278038 -28.47842789 8.9751091 C-27.26005305 7.54803637 -26.05411339 6.11037276 -24.84921265 4.67190552 C-18.12156503 -1.92957761 -8.82750468 -2.33914951 0 0 Z " fill="#E12626" transform="translate(490.4765625,256.65625)"/>
<path d="M0 0 C5.28 0 10.56 0 16 0 C16 10.56 16 21.12 16 32 C23.92 32 31.84 32 40 32 C40 42.56 40 53.12 40 64 C3.04 64 -33.92 64 -72 64 C-72 53.44 -72 42.88 -72 32 C-74.64 32 -77.28 32 -80 32 C-80 26.72 -80 21.44 -80 16 C-78.00702881 15.98541748 -76.01405762 15.97083496 -73.96069336 15.95581055 C-67.35882195 15.90406032 -60.75719235 15.83874788 -54.15553951 15.76428509 C-50.15490185 15.71965258 -46.15436435 15.68038111 -42.15356445 15.65356445 C-38.28894557 15.62745994 -34.42471359 15.58700794 -30.56033516 15.53681374 C-29.08968499 15.52019312 -27.61896798 15.508649 -26.14823723 15.50238609 C-24.08010653 15.492692 -22.01295496 15.46457291 -19.94506836 15.43237305 C-18.77036484 15.42126999 -17.59566132 15.41016693 -16.38536072 15.39872742 C-11.34687646 14.80529529 -7.39167503 13.3540622 -3.6875 9.75 C-1.51312766 6.48288869 -1.51312766 6.48288869 0 0 Z " fill="#FCC200" transform="translate(192,440)"/>
<path d="M0 0 C15.16790733 -1.42507883 30.33712755 -2.39132002 45.5625 -2.9375 C46.67436047 -2.97758556 47.78622093 -3.01767113 48.93177414 -3.05897141 C74.36492035 -3.86883683 97.75325952 -4.47531365 117.37889099 13.54289246 C120.62888935 16.68199203 123.63057792 20.00184204 126.5625 23.4375 C127.04148365 23.9974831 127.5204673 24.5574662 128.01396561 25.13441849 C144 44.04779489 144 44.04779489 144 48 C128.83209267 49.42507883 113.66287245 50.39132002 98.4375 50.9375 C97.32563953 50.97758556 96.21377907 51.01767113 95.06822586 51.05897141 C69.63507965 51.86883683 46.24674048 52.47531365 26.62110901 34.45710754 C23.37111065 31.31800797 20.36942208 27.99815796 17.4375 24.5625 C16.95851635 24.0025169 16.4795327 23.4425338 15.98603439 22.86558151 C0 3.95220511 0 3.95220511 0 0 Z " fill="#E22526" transform="translate(208,8)"/>
<path d="M0 0 C0 23.43 0 46.86 0 71 C-7.92 71.33 -15.84 71.66 -24 72 C-30.95704729 77.24383999 -30.95704729 77.24383999 -36.68945312 83.15625 C-37.30699463 83.8884375 -37.92453613 84.620625 -38.56079102 85.375 C-39.18010498 86.1175 -39.79941895 86.86 -40.4375 87.625 C-42.37315967 89.86077505 -44.3249223 92.0769709 -46.30958557 94.26937866 C-47.52766459 95.62276894 -48.71661486 97.00315979 -49.86949158 98.4125061 C-53.79855729 102.88470533 -53.79855729 102.88470533 -57.33882141 103.22444153 C-63.60909289 102.60982012 -67.62255873 100.53554299 -72 96 C-75.68981571 91.14607342 -76.44342869 86.49150366 -76.43359375 80.4921875 C-75.47489264 74.98181533 -72.47391021 71.07937518 -68.75 67.0625 C-67.95207031 66.20140625 -67.15414063 65.3403125 -66.33203125 64.453125 C-62.19797399 60.10440145 -58.06493197 55.87752901 -53.48803711 51.99194336 C-48.53579479 47.6747402 -43.9190684 43.03256493 -39.29532051 38.37048531 C-37.72161186 36.78384652 -36.14465405 35.2004995 -34.56687927 33.61790466 C-31.22923506 30.26893472 -27.89559707 26.91599473 -24.5625 23.5625 C-20.67351796 19.64990881 -16.78290684 15.73896564 -12.88810539 11.83216667 C-11.33217189 10.2697377 -9.77926872 8.7043386 -8.22645569 7.1388092 C-7.28205758 6.19078231 -6.3375209 5.24289344 -5.39282227 4.29516602 C-4.56645767 3.46356461 -3.74009308 2.6319632 -2.88868713 1.77516174 C-1 0 -1 0 0 0 Z " fill="#F9C7B1" transform="translate(472,321)"/>
<path d="M0 0 C0.80520411 -0.00638882 1.61040822 -0.01277764 2.44001245 -0.01936007 C5.13576762 -0.03461007 7.83005306 -0.01414953 10.52575684 0.00622559 C12.45924873 0.00272438 14.39273774 -0.00293418 16.32621765 -0.0105896 C21.5762809 -0.0248473 26.82582102 -0.00776622 32.07583427 0.01569557 C37.56813242 0.03578951 43.06040852 0.02992577 48.55273438 0.02758789 C57.77641436 0.02764148 66.9998896 0.04740786 76.22351074 0.07946777 C86.88962161 0.11636119 97.55546423 0.12514347 108.22163057 0.11817026 C118.47910468 0.11186655 128.73648673 0.12261713 138.99394226 0.14213562 C143.36066499 0.15031363 147.72734069 0.15301842 152.09407043 0.15144348 C157.23559958 0.15056499 162.37687352 0.1647713 167.51833534 0.19067001 C169.40614396 0.19783649 171.29397971 0.19991313 173.18179893 0.19655228 C175.75713763 0.19284177 178.33172977 0.20756984 180.90698242 0.22705078 C181.65552443 0.22172286 182.40406644 0.21639493 183.17529154 0.21090555 C187.59621227 0.26867304 190.43878641 0.89045667 193.95349121 3.62145996 C195.35806858 6.4306147 195.20244278 8.5095653 194.95349121 11.62145996 C193.17364716 14.75737566 192.43040914 15.46248732 188.95349121 16.62145996 C186.34045636 16.72145009 183.75399056 16.76490075 181.14076233 16.76190186 C179.93446109 16.76635854 179.93446109 16.76635854 178.70379013 16.77090526 C175.99998538 16.77960023 173.29622486 16.78110117 170.59240723 16.78259277 C168.65759181 16.7872203 166.7227773 16.79224487 164.78796387 16.79763794 C159.52564442 16.8107683 154.26333773 16.81720788 149.00100446 16.8216486 C145.71558729 16.82457766 142.43017363 16.8286821 139.14475822 16.83315277 C128.87183223 16.84682797 118.59891423 16.85649512 108.32597977 16.86035466 C96.45500326 16.86483879 84.5841417 16.88240307 72.71320015 16.91135526 C63.54457313 16.93294317 54.37597853 16.94305736 45.20732635 16.94439578 C39.72761014 16.94544568 34.24800198 16.95139287 28.76831245 16.96921539 C23.61619267 16.98564664 18.46426274 16.98787572 13.31212616 16.97907639 C11.41904379 16.97830341 9.52595141 16.98268281 7.63289452 16.99253464 C5.05276898 17.00517695 2.47332381 16.99941976 -0.10679626 16.98895264 C-1.2360249 17.00103724 -1.2360249 17.00103724 -2.38806623 17.01336598 C-5.56124354 16.98316312 -7.71476984 16.81209493 -10.49366856 15.21519089 C-12.30186133 13.35938326 -12.75662804 12.29749808 -13.10900879 9.74645996 C-13.22373535 9.08903809 -13.33846191 8.43161621 -13.45666504 7.75427246 C-12.11851013 0.79586693 -6.00526314 -0.10042586 0 0 Z " fill="#FEEB00" transform="translate(165.0465087890625,255.3785400390625)"/>
<path d="M0 0 C0.80520411 -0.00638882 1.61040822 -0.01277764 2.44001245 -0.01936007 C5.13576762 -0.03461007 7.83005306 -0.01414953 10.52575684 0.00622559 C12.45924873 0.00272438 14.39273774 -0.00293418 16.32621765 -0.0105896 C21.5762809 -0.0248473 26.82582102 -0.00776622 32.07583427 0.01569557 C37.56813242 0.03578951 43.06040852 0.02992577 48.55273438 0.02758789 C57.77641436 0.02764148 66.9998896 0.04740786 76.22351074 0.07946777 C86.88962161 0.11636119 97.55546423 0.12514347 108.22163057 0.11817026 C118.47910468 0.11186655 128.73648673 0.12261713 138.99394226 0.14213562 C143.36066499 0.15031363 147.72734069 0.15301842 152.09407043 0.15144348 C157.23559958 0.15056499 162.37687352 0.1647713 167.51833534 0.19067001 C169.40614396 0.19783649 171.29397971 0.19991313 173.18179893 0.19655228 C175.75713763 0.19284177 178.33172977 0.20756984 180.90698242 0.22705078 C181.65552443 0.22172286 182.40406644 0.21639493 183.17529154 0.21090555 C187.59621227 0.26867304 190.43878641 0.89045667 193.95349121 3.62145996 C195.35806858 6.4306147 195.20244278 8.5095653 194.95349121 11.62145996 C193.17364716 14.75737566 192.43040914 15.46248732 188.95349121 16.62145996 C186.34045636 16.72145009 183.75399056 16.76490075 181.14076233 16.76190186 C179.93446109 16.76635854 179.93446109 16.76635854 178.70379013 16.77090526 C175.99998538 16.77960023 173.29622486 16.78110117 170.59240723 16.78259277 C168.65759181 16.7872203 166.7227773 16.79224487 164.78796387 16.79763794 C159.52564442 16.8107683 154.26333773 16.81720788 149.00100446 16.8216486 C145.71558729 16.82457766 142.43017363 16.8286821 139.14475822 16.83315277 C128.87183223 16.84682797 118.59891423 16.85649512 108.32597977 16.86035466 C96.45500326 16.86483879 84.5841417 16.88240307 72.71320015 16.91135526 C63.54457313 16.93294317 54.37597853 16.94305736 45.20732635 16.94439578 C39.72761014 16.94544568 34.24800198 16.95139287 28.76831245 16.96921539 C23.61619267 16.98564664 18.46426274 16.98787572 13.31212616 16.97907639 C11.41904379 16.97830341 9.52595141 16.98268281 7.63289452 16.99253464 C5.05276898 17.00517695 2.47332381 16.99941976 -0.10679626 16.98895264 C-1.2360249 17.00103724 -1.2360249 17.00103724 -2.38806623 17.01336598 C-5.56124354 16.98316312 -7.71476984 16.81209493 -10.49366856 15.21519089 C-12.30186133 13.35938326 -12.75662804 12.29749808 -13.10900879 9.74645996 C-13.22373535 9.08903809 -13.33846191 8.43161621 -13.45666504 7.75427246 C-12.11851013 0.79586693 -6.00526314 -0.10042586 0 0 Z " fill="#FEEB00" transform="translate(165.0465087890625,223.3785400390625)"/>
<path d="M0 0 C-3.51473351 4.38687341 -7.18679738 8.16455298 -11.53271484 11.72705078 C-31.07413777 27.11692506 -31.07413777 27.11692506 -40.21875 49.125 C-40.68285765 56.23036791 -40.31738156 63.44518848 -39.32446289 70.49633789 C-38.71250505 75.24861048 -39.48596733 77.94783815 -42 82 C-45.08363001 85.38075061 -48.41514543 87.69966452 -53.05078125 88.23828125 C-58.58896758 88.42001793 -61.64755155 87.74513006 -66 84 C-75.85847109 73.07574825 -72.95396415 50.88746372 -72.4453125 37.06640625 C-71.73654169 24.81882521 -69.3632194 15.93225819 -60.45193481 7.31314087 C-44.87288336 -6.33993986 -18.96362962 -1.83610118 0 0 Z " fill="#F9C7B1" transform="translate(415,312)"/>
<path d="M0 0 C4.4347892 4.26743867 5.91880226 7.54760355 6.12025452 13.63201904 C6.12314575 15.11242563 6.12051267 16.59284926 6.11352539 18.07324219 C6.11367142 18.88337265 6.11381744 19.69350311 6.1139679 20.52818298 C6.11327224 23.20110773 6.10549606 25.87396245 6.09765625 28.546875 C6.09579084 30.40203819 6.09436752 32.25720187 6.09336853 34.11236572 C6.08955305 38.99169274 6.07973102 43.87098993 6.06866455 48.75030518 C6.05842961 53.7306681 6.05386644 58.71103584 6.04882812 63.69140625 C6.03810789 73.46095271 6.02051892 83.2304692 6 93 C-4.56 93 -15.12 93 -26 93 C-26.06785308 82.2990466 -26.12286076 71.59823675 -26.15543652 60.89711666 C-26.17107346 55.92783026 -26.19227576 50.95869905 -26.22631836 45.98950195 C-26.25898206 41.1914016 -26.27686784 36.39345025 -26.28463173 31.59524727 C-26.29016265 29.76726499 -26.30096322 27.93929061 -26.31719017 26.11137199 C-26.33905774 23.54534334 -26.34196305 20.97992563 -26.34057617 18.41381836 C-26.35675491 17.28740181 -26.35675491 17.28740181 -26.3732605 16.13822937 C-26.34041729 10.49978525 -25.27290448 5.70324107 -21.53515625 1.2578125 C-14.71307362 -3.98994337 -7.49386315 -4.88730205 0 0 Z " fill="#C4D4DE" transform="translate(218,59)"/>
<path d="M0 0 C10.56 0 21.12 0 32 0 C32 26.4 32 52.8 32 80 C21.44 80 10.88 80 0 80 C0 53.6 0 27.2 0 0 Z " fill="#00587E" transform="translate(8,88)"/>
<path d="M0 0 C7.92 0 15.84 0 24 0 C24 26.4 24 52.8 24 80 C13.44 80 2.88 80 -8 80 C-8.32087047 62.35212389 -8.32087047 62.35212389 -8.390625 54.796875 C-8.43834862 49.65231866 -8.49463925 44.50890733 -8.60351562 39.36523438 C-8.69079996 35.21540343 -8.73834726 31.06680084 -8.75901794 26.91612244 C-8.77373684 25.33720062 -8.80248184 23.7583419 -8.84584045 22.1799469 C-8.90442645 19.95771089 -8.91189479 17.74046891 -8.90820312 15.51757812 C-8.93485046 13.62561707 -8.93485046 13.62561707 -8.96203613 11.69543457 C-8 8 -8 8 0 0 Z " fill="#00587E" transform="translate(480,312)"/>
<path d="M0 0 C31.68 0 63.36 0 96 0 C94.68 3.3 93.36 6.6 92 10 C87.4375 11.75 87.4375 11.75 84.78515625 12.3125 C76.51522263 14.35388614 68.73926458 19.78851745 63 26 C62.70179855 26.5644986 62.40359711 27.12899719 62.09635925 27.71060181 C60.90816539 29.83897191 59.82128005 31.36942896 58 33 C54.46320283 33.92030935 51.07562784 33.67939342 47.44921875 33.46484375 C46.43527542 33.43274307 45.42133209 33.4006424 44.37666321 33.36756897 C41.14468743 33.25757745 37.91731086 33.09823372 34.6875 32.9375 C32.49426217 32.85415923 30.30089927 32.77404306 28.10742188 32.69726562 C22.7362699 32.50220968 17.36804942 32.26662576 12 32 C10.28422691 27.9277008 8.57543229 23.85256612 6.87304688 19.7746582 C6.29292721 18.38778934 5.71090747 17.00171368 5.12695312 15.61645508 C4.28795694 13.625266 3.45583338 11.63132516 2.625 9.63671875 C2.12226562 8.43748779 1.61953125 7.23825684 1.1015625 6.00268555 C0 3 0 3 0 0 Z " fill="#FBE2BC" transform="translate(48,320)"/>
<path d="M0 0 C1.94951569 -0.0131424 1.94951569 -0.0131424 3.93841553 -0.02655029 C7.49643086 -0.0493129 11.05371998 -0.04052065 14.61174774 -0.02465487 C18.33835277 -0.01197976 22.06489639 -0.02374043 25.79150391 -0.03158569 C32.049267 -0.04067763 38.30673487 -0.02870657 44.56445312 -0.00488281 C51.79524456 0.02232795 59.02533107 0.01351344 66.25610542 -0.01401484 C72.46860849 -0.03671816 78.68089956 -0.03990013 84.89343071 -0.02682149 C88.60202461 -0.01903356 92.31028735 -0.01796685 96.01885986 -0.03450394 C100.15362165 -0.05165418 104.28717175 -0.02787354 108.421875 0 C110.26262604 -0.01518173 110.26262604 -0.01518173 112.14056396 -0.03067017 C121.37003716 0.08477865 121.37003716 0.08477865 124.47900391 2.9960022 C126.59620824 6.23668427 126.85789049 7.84612384 126.2109375 11.64697266 C124.43109345 14.78288836 123.68785543 15.48800001 120.2109375 16.64697266 C118.4185885 16.74371049 116.62284543 16.78192604 114.82789612 16.78741455 C113.71047028 16.79312469 112.59304443 16.79883484 111.4417572 16.80471802 C110.21517899 16.80583588 108.98860077 16.80695374 107.72485352 16.80810547 C105.78799683 16.81555283 105.78799683 16.81555283 103.81201172 16.82315063 C100.26864588 16.83626588 96.72529898 16.84271759 93.18191266 16.84716129 C90.96855683 16.85009274 88.75520618 16.85419763 86.54185295 16.85866547 C79.61777348 16.87233656 72.69370584 16.88200576 65.7696138 16.88586736 C57.77448788 16.89035077 49.77953269 16.90791328 41.7844587 16.93686795 C35.60519006 16.95847073 29.42596952 16.96857084 23.24666351 16.96990848 C19.5554488 16.97095729 15.86439467 16.97688145 12.17321968 16.99472809 C8.05751264 17.01424084 3.94216413 17.00992546 -0.17358398 17.00341797 C-1.39813797 17.01263275 -2.62269196 17.02184753 -3.88435364 17.03134155 C-5.56472214 17.02298782 -5.56472214 17.02298782 -7.27903748 17.01446533 C-8.73884364 17.01666517 -8.73884364 17.01666517 -10.22814083 17.01890945 C-13.22979434 16.58296274 -14.5916066 15.70138825 -16.7890625 13.64697266 C-17.57421875 11.77978516 -17.57421875 11.77978516 -17.8515625 9.77197266 C-17.96628906 9.11455078 -18.08101562 8.45712891 -18.19921875 7.77978516 C-17.69062351 5.13508991 -16.61158286 3.57715853 -14.6714325 1.72816849 C-10.33003879 -0.76544158 -4.85696128 -0.04005815 0 0 Z " fill="#FEEB00" transform="translate(233.7890625,191.35302734375)"/>
<path d="M0 0 C1.28992355 -0.00554901 2.57984711 -0.01109802 3.90885925 -0.01681519 C7.44006301 -0.03104557 10.97048642 -0.01401989 14.50161552 0.00946999 C18.20017049 0.02960069 21.89869375 0.02369828 25.59729004 0.0213623 C31.80799199 0.02141585 38.01838947 0.0411583 44.22900391 0.07324219 C51.40512854 0.11013413 58.5808544 0.11891753 65.75706148 0.11194468 C72.66570695 0.10563518 79.57421594 0.11640218 86.48283386 0.13591003 C89.42052661 0.14407593 92.35814952 0.14679508 95.29585266 0.1452179 C99.3992621 0.14417419 103.50214772 0.1683704 107.60546875 0.1953125 C109.43219368 0.1909166 109.43219368 0.1909166 111.29582214 0.18643188 C112.41455215 0.19778168 113.53328217 0.20913147 114.68591309 0.2208252 C115.65559776 0.22455391 116.62528244 0.22828262 117.6243515 0.23212433 C120.81111338 0.6879518 122.7085672 1.73792472 125.30273438 3.61523438 C126.70731174 6.42438911 126.55168595 8.50333972 126.30273438 11.61523438 C124.52289033 14.75115008 123.77965231 15.45626173 120.30273438 16.61523438 C118.51038537 16.71197221 116.71464231 16.75018776 114.91969299 16.75567627 C113.80226715 16.76138641 112.68484131 16.76709656 111.53355408 16.77297974 C110.30697586 16.7740976 109.08039764 16.77521545 107.81665039 16.77636719 C105.8797937 16.78381454 105.8797937 16.78381454 103.90380859 16.79141235 C100.36044275 16.8045276 96.81709585 16.81097931 93.27370954 16.81542301 C91.06035371 16.81835446 88.84700305 16.82245935 86.63364983 16.82692719 C79.70957035 16.84059828 72.78550271 16.85026748 65.86141068 16.85412908 C57.86628476 16.85861249 49.87132957 16.876175 41.87625557 16.90512967 C35.69698693 16.92673245 29.51776639 16.93683256 23.33846039 16.93817019 C19.64724567 16.93921901 15.95619154 16.94514317 12.26501656 16.96298981 C8.14930952 16.98250256 4.033961 16.97818718 -0.08178711 16.97167969 C-1.30634109 16.98089447 -2.53089508 16.99010925 -3.79255676 16.99960327 C-5.47292526 16.99124954 -5.47292526 16.99124954 -7.1872406 16.98272705 C-8.64704676 16.98492689 -8.64704676 16.98492689 -10.13634396 16.98717117 C-13.13799746 16.55122446 -14.49980972 15.66964997 -16.69726562 13.61523438 C-17.48242188 11.74804688 -17.48242188 11.74804688 -17.75976562 9.74023438 C-17.87449219 9.0828125 -17.98921875 8.42539062 -18.10742188 7.74804688 C-17.59852832 5.10180039 -16.51499395 3.54437863 -14.57403564 1.69447327 C-10.25870377 -0.7870636 -4.82780189 -0.05257961 0 0 Z " fill="#FEEB00" transform="translate(169.697265625,287.384765625)"/>
<path d="M0 0 C5.56796693 3.36945638 9.5243608 8.25133563 11.5 14.4375 C11.87109375 17.70703125 11.87109375 17.70703125 11.9375 21.25 C11.99744141 22.99216797 11.99744141 22.99216797 12.05859375 24.76953125 C10.67096183 33.88132408 3.53552348 39.7848774 -2.8125 45.9375 C-3.64845703 46.75992188 -4.48441406 47.58234375 -5.34570312 48.4296875 C-7.39042129 50.43935336 -9.44183363 52.44162487 -11.5 54.4375 C-15.47244032 51.09692663 -19.31886998 47.72807819 -22.9375 44 C-26.31005418 40.58179365 -29.79326155 37.3999271 -33.4375 34.27734375 C-37.29306484 30.83800466 -40.88572867 27.12706865 -44.5 23.4375 C-42.1645937 18.0665187 -37.84031899 14.44913893 -33.75 10.375 C-32.95078125 9.55966797 -32.1515625 8.74433594 -31.328125 7.90429688 C-22.59656862 -0.83444006 -12.2838982 -5.50166869 0 0 Z " fill="#FCC200" transform="translate(492.5,257.5625)"/>
<path d="M0 0 C1.05583786 -0.00554901 2.11167572 -0.01109802 3.19950867 -0.01681519 C6.68750475 -0.02862007 10.17420425 -0.00432607 13.66210938 0.02148438 C16.08679139 0.0231953 18.51147525 0.02312999 20.93615723 0.0213623 C26.01702579 0.02301604 31.0974534 0.04172489 36.17822266 0.07324219 C42.69189425 0.11291937 49.20498813 0.11728764 55.71875763 0.10977936 C60.72533462 0.10671023 65.73178167 0.11882826 70.73832703 0.13591003 C73.140103 0.14294277 75.54189369 0.14606424 77.94367981 0.1452179 C81.29996369 0.147015 84.65555463 0.16839058 88.01171875 0.1953125 C89.00511765 0.1923819 89.99851654 0.18945129 91.02201843 0.18643188 C95.95620719 0.24751676 99.55180085 0.2996377 103.50585938 3.61523438 C104.91043674 6.42438911 104.75481095 8.50333972 104.50585938 11.61523438 C102.72601533 14.75115008 101.98277731 15.45626173 98.50585938 16.61523438 C97.01987373 16.71419153 95.52992027 16.75869017 94.04067993 16.76913452 C92.66961845 16.78203522 92.66961845 16.78203522 91.27085876 16.79519653 C89.76997459 16.80158646 89.76997459 16.80158646 88.23876953 16.80810547 C87.18322372 16.81628296 86.12767792 16.82446045 85.04014587 16.83288574 C81.54174367 16.85773052 78.04338194 16.8742514 74.54492188 16.88867188 C73.35136456 16.89399555 72.15780724 16.89931923 70.92808151 16.90480423 C64.6135192 16.9315288 58.29897665 16.95090802 51.984375 16.96533203 C45.45488075 16.98199953 38.92588929 17.02679757 32.39658546 17.07770348 C27.38147381 17.11131254 22.36648261 17.12290241 17.35126877 17.12855911 C14.94386313 17.13528654 12.53646583 17.15054697 10.12916946 17.17444992 C6.76293797 17.20597374 3.39807786 17.20615712 0.03173828 17.19873047 C-0.9648027 17.2151358 -1.96134369 17.23154114 -2.98808289 17.2484436 C-7.64986135 17.20627797 -9.79518225 17.14166397 -13.61294556 14.26626587 C-15.49414062 11.61523438 -15.49414062 11.61523438 -16.11914062 8.61523438 C-14.28355256 -0.19558836 -7.47149355 -0.09975474 0 0 Z " fill="#FEEB00" transform="translate(287.494140625,463.384765625)"/>
<path d="M0 0 C5.28 0 10.56 0 16 0 C16 10.56 16 21.12 16 32 C-15.68 32 -47.36 32 -80 32 C-80 26.72 -80 21.44 -80 16 C-78.00702881 15.98541748 -76.01405762 15.97083496 -73.96069336 15.95581055 C-67.35882195 15.90406032 -60.75719235 15.83874788 -54.15553951 15.76428509 C-50.15490185 15.71965258 -46.15436435 15.68038111 -42.15356445 15.65356445 C-38.28894557 15.62745994 -34.42471359 15.58700794 -30.56033516 15.53681374 C-29.08968499 15.52019312 -27.61896798 15.508649 -26.14823723 15.50238609 C-24.08010653 15.492692 -22.01295496 15.46457291 -19.94506836 15.43237305 C-18.77036484 15.42126999 -17.59566132 15.41016693 -16.38536072 15.39872742 C-11.34687646 14.80529529 -7.39167503 13.3540622 -3.6875 9.75 C-1.51312766 6.48288869 -1.51312766 6.48288869 0 0 Z " fill="#FCC200" transform="translate(216,472)"/>
<path d="M0 0 C31.68 0 63.36 0 96 0 C94.86383929 7.953125 94.86383929 7.953125 92.3125 10.8125 C91.59513672 11.65748047 91.59513672 11.65748047 90.86328125 12.51953125 C86.50536301 15.98211199 81.55033533 16.24735976 76.16845703 16.22705078 C75.18690895 16.22748886 75.18690895 16.22748886 74.18553162 16.22793579 C72.04281924 16.22655288 69.90046343 16.21104147 67.7578125 16.1953125 C66.2642333 16.19157866 64.77065163 16.18873344 63.27706909 16.18673706 C59.36109562 16.17912978 55.44527236 16.15950653 51.52935791 16.1373291 C47.52740511 16.11680783 43.52542784 16.10772195 39.5234375 16.09765625 C31.68221532 16.07625763 23.8411437 16.04109945 16 16 C16 21.28 16 26.56 16 32 C10.72 32 5.44 32 0 32 C0 21.44 0 10.88 0 0 Z " fill="#FEEB00" transform="translate(120,472)"/>
<path d="M0 0 C9.01207824 -0.45461522 17.37465477 3.78569075 24.26171875 9.41796875 C32.33716531 16.76753248 37.34860865 25.94837581 38.23828125 36.9453125 C38.50962051 48.57005757 35.41047412 57.96741749 28 67 C21.10698157 74.2219384 12.27849435 79.69027684 2.0625 80.125 C1.381875 80.08375 0.70125 80.0425 0 80 C0.804375 79.2575 1.60875 78.515 2.4375 77.75 C5.13630319 75.35382643 5.13630319 75.35382643 5.375 72.875 C5.58125 72.25625 5.7875 71.6375 6 71 C7.70514461 70.24580142 9.41520755 69.49919301 11.15625 68.83203125 C15.40138545 66.91632394 17.60396367 63.71013411 19.8125 59.75 C21.71383586 53.74578149 21.99421794 48.60179838 19.4375 42.75 C16.61812131 37.70532598 12.41181916 34.80393972 7 33 C3.78660981 32.77431039 0.57983729 32.60656005 -2.63867188 32.48242188 C-7.78526139 32.21473861 -7.78526139 32.21473861 -10 30 C-9.44444444 25.44444444 -9.44444444 25.44444444 -8 24 C-6.19375882 23.89074168 -4.38365163 23.8441499 -2.57421875 23.82421875 C-1.46755859 23.80037109 -0.36089844 23.77652344 0.77929688 23.75195312 C3.12286529 23.70920146 5.46667075 23.67783358 7.81054688 23.65820312 C8.92107422 23.63048828 10.03160156 23.60277344 11.17578125 23.57421875 C12.19583252 23.55963623 13.21588379 23.54505371 14.2668457 23.5300293 C17.69134519 22.86593029 18.89374968 21.73592527 21 19 C21.50299316 14.89222251 21.32749345 13.49124017 19 10 C15.66093685 9.37612241 12.35188788 9.11222041 8.96875 8.8203125 C7.9890625 8.54960937 7.009375 8.27890625 6 8 C4.7265625 5.54296875 4.7265625 5.54296875 4 3 C1.98682781 1.19651922 1.98682781 1.19651922 0 0 Z " fill="#FCC200" transform="translate(154,344)"/>
<path d="M0 0 C-0.82534874 2.96154549 -1.49956969 5.35713679 -3 8 C-6.375 9.6875 -6.375 9.6875 -10 11 C-14.72305216 14.8643154 -17.41650568 19.05073968 -18.3203125 25.16796875 C-18.61392395 30.85424379 -17.43594215 35.4154144 -14 40 C-7.97939694 45.51432507 -2.2755917 46.21232431 5.63867188 46.51757812 C10.78526139 46.78526139 10.78526139 46.78526139 13 49 C12.44444444 53.55555556 12.44444444 53.55555556 11 55 C9.19375882 55.10925832 7.38365163 55.1558501 5.57421875 55.17578125 C4.46755859 55.19962891 3.36089844 55.22347656 2.22070312 55.24804688 C-0.12286529 55.29079854 -2.46667075 55.32216642 -4.81054688 55.34179688 C-6.47633789 55.38336914 -6.47633789 55.38336914 -8.17578125 55.42578125 C-9.70585815 55.44765503 -9.70585815 55.44765503 -11.2668457 55.4699707 C-14.67060286 56.13004724 -15.87706883 57.31185251 -18 60 C-18.40073683 62.99141578 -17.72823519 64.98996123 -17 68 C-13.71508627 70.18994248 -12.16904361 70.35277339 -8.3125 70.625 C-7.31863281 70.69976562 -6.32476562 70.77453125 -5.30078125 70.8515625 C-4.16189453 70.92503906 -4.16189453 70.92503906 -3 71 C-2.71382812 71.78761719 -2.42765625 72.57523437 -2.1328125 73.38671875 C-0.86490286 76.31165514 0.34692407 77.31971858 3 79 C-6.83334999 78.83045948 -16.73658443 74.43234232 -24 67.75 C-32.195257 58.51736869 -35.50480267 48.12928979 -35.24609375 36.015625 C-34.37909929 25.39150246 -29.49504866 16.01272082 -21.8125 8.6875 C-15.35548016 3.31028584 -8.52189518 -0.39926888 0 0 Z " fill="#FCC200" transform="translate(147,345)"/>
<path d="M0 0 C0.97096619 0.00565979 1.94193237 0.01131958 2.94232178 0.01715088 C6.04017669 0.03952189 9.13687033 0.08972027 12.234375 0.140625 C14.33592078 0.16068903 16.43748472 0.17893997 18.5390625 0.1953125 C23.6879467 0.2393892 28.83596403 0.30842242 33.984375 0.390625 C34.479375 1.380625 34.479375 1.380625 34.984375 2.390625 C34.12108376 4.44425638 33.16720287 6.46013829 32.171875 8.453125 C29.61143629 13.79974875 27.97227668 18.56200508 26.984375 24.390625 C23.22918443 23.87855356 20.31748975 23.1731168 16.984375 21.390625 C16.4495752 21.93066162 15.91477539 22.47069824 15.36376953 23.02709961 C12.94823794 25.46336876 10.52886383 27.89578607 8.109375 30.328125 C7.26761719 31.17826172 6.42585938 32.02839844 5.55859375 32.90429688 C4.75292969 33.71318359 3.94726562 34.52207031 3.1171875 35.35546875 C2.37355957 36.1043335 1.62993164 36.85319824 0.86376953 37.62475586 C-1.49370899 39.83983018 -2.60188922 40.33546023 -5.828125 40.765625 C-9.015625 40.390625 -9.015625 40.390625 -11.890625 38.265625 C-14.015625 35.390625 -14.015625 35.390625 -14.765625 32.578125 C-13.61852832 27.7029641 -10.48001957 24.87727478 -7.015625 21.390625 C-5.8090625 20.153125 -5.8090625 20.153125 -4.578125 18.890625 C-4.0625 18.395625 -3.546875 17.900625 -3.015625 17.390625 C-4.27375 17.16375 -5.531875 16.936875 -6.828125 16.703125 C-9.92220713 15.92002103 -10.8273344 15.60245192 -13.015625 13.140625 C-14.19097277 9.90841864 -14.52362695 7.80149521 -14.015625 4.390625 C-10.54355769 -0.95902018 -5.74881867 -0.12601936 0 0 Z " fill="#6A3E13" transform="translate(70.015625,351.609375)"/>
<path d="M0 0 C1.73618591 -0.00006042 1.73618591 -0.00006042 3.50744629 -0.00012207 C5.95179684 0.00523347 8.39614694 0.02281732 10.84033203 0.05175781 C14.58028833 0.09359939 18.31844293 0.09282635 22.05859375 0.0859375 C24.43490834 0.09643055 26.81121365 0.10936926 29.1875 0.125 C30.3053186 0.12520142 31.42313721 0.12540283 32.5748291 0.12561035 C34.14170471 0.14947815 34.14170471 0.14947815 35.74023438 0.17382812 C37.11326721 0.18645691 37.11326721 0.18645691 38.51403809 0.19934082 C41.63433226 0.676399 43.54257635 1.76301627 46.09375 3.59375 C47.49832737 6.40290474 47.34270157 8.48185534 47.09375 11.59375 C45.31390595 14.7296657 44.57066793 15.43477736 41.09375 16.59375 C39.38740843 16.70601312 37.67714861 16.76271412 35.96728516 16.78662109 C34.92255035 16.80268402 33.87781555 16.81874695 32.80142212 16.83529663 C28.03363736 16.87977343 23.26599045 16.92079304 18.49804688 16.94384766 C15.98200239 16.96042624 13.46600536 16.98774082 10.95019531 17.02587891 C7.32331909 17.08057216 3.69754524 17.10250922 0.0703125 17.1171875 C-1.61582657 17.15119156 -1.61582657 17.15119156 -3.33602905 17.18588257 C-11.12480853 17.16476223 -11.12480853 17.16476223 -15.11572266 14.24853516 C-16.90625 11.59375 -16.90625 11.59375 -17.53125 8.59375 C-15.57756079 -0.78395819 -7.83903622 -0.11497667 0 0 Z " fill="#FDEB00" transform="translate(248.90625,415.40625)"/>
<path d="M0 0 C1.73618591 -0.00006042 1.73618591 -0.00006042 3.50744629 -0.00012207 C5.95179684 0.00523347 8.39614694 0.02281732 10.84033203 0.05175781 C14.58028833 0.09359939 18.31844293 0.09282635 22.05859375 0.0859375 C24.43490834 0.09643055 26.81121365 0.10936926 29.1875 0.125 C30.3053186 0.12520142 31.42313721 0.12540283 32.5748291 0.12561035 C34.14170471 0.14947815 34.14170471 0.14947815 35.74023438 0.17382812 C37.11326721 0.18645691 37.11326721 0.18645691 38.51403809 0.19934082 C41.63433226 0.676399 43.54257635 1.76301627 46.09375 3.59375 C47.49832737 6.40290474 47.34270157 8.48185534 47.09375 11.59375 C45.31390595 14.7296657 44.57066793 15.43477736 41.09375 16.59375 C39.38740843 16.70601312 37.67714861 16.76271412 35.96728516 16.78662109 C34.92255035 16.80268402 33.87781555 16.81874695 32.80142212 16.83529663 C28.03363736 16.87977343 23.26599045 16.92079304 18.49804688 16.94384766 C15.98200239 16.96042624 13.46600536 16.98774082 10.95019531 17.02587891 C7.32331909 17.08057216 3.69754524 17.10250922 0.0703125 17.1171875 C-1.61582657 17.15119156 -1.61582657 17.15119156 -3.33602905 17.18588257 C-11.12480853 17.16476223 -11.12480853 17.16476223 -15.11572266 14.24853516 C-16.90625 11.59375 -16.90625 11.59375 -17.53125 8.59375 C-15.57756079 -0.78395819 -7.83903622 -0.11497667 0 0 Z " fill="#FDEB00" transform="translate(248.90625,383.40625)"/>
<path d="M0 0 C1.73618591 -0.00006042 1.73618591 -0.00006042 3.50744629 -0.00012207 C5.95179684 0.00523347 8.39614694 0.02281732 10.84033203 0.05175781 C14.58028833 0.09359939 18.31844293 0.09282635 22.05859375 0.0859375 C24.43490834 0.09643055 26.81121365 0.10936926 29.1875 0.125 C30.3053186 0.12520142 31.42313721 0.12540283 32.5748291 0.12561035 C34.14170471 0.14947815 34.14170471 0.14947815 35.74023438 0.17382812 C37.11326721 0.18645691 37.11326721 0.18645691 38.51403809 0.19934082 C41.63433226 0.676399 43.54257635 1.76301627 46.09375 3.59375 C47.49832737 6.40290474 47.34270157 8.48185534 47.09375 11.59375 C45.31390595 14.7296657 44.57066793 15.43477736 41.09375 16.59375 C39.38740843 16.70601312 37.67714861 16.76271412 35.96728516 16.78662109 C34.92255035 16.80268402 33.87781555 16.81874695 32.80142212 16.83529663 C28.03363736 16.87977343 23.26599045 16.92079304 18.49804688 16.94384766 C15.98200239 16.96042624 13.46600536 16.98774082 10.95019531 17.02587891 C7.32331909 17.08057216 3.69754524 17.10250922 0.0703125 17.1171875 C-1.61582657 17.15119156 -1.61582657 17.15119156 -3.33602905 17.18588257 C-11.12480853 17.16476223 -11.12480853 17.16476223 -15.11572266 14.24853516 C-16.90625 11.59375 -16.90625 11.59375 -17.53125 8.59375 C-15.57756079 -0.78395819 -7.83903622 -0.11497667 0 0 Z " fill="#FDEB00" transform="translate(248.90625,351.40625)"/>
<path d="M0 0 C1.73618591 -0.00006042 1.73618591 -0.00006042 3.50744629 -0.00012207 C5.95179684 0.00523347 8.39614694 0.02281732 10.84033203 0.05175781 C14.58028833 0.09359939 18.31844293 0.09282635 22.05859375 0.0859375 C24.43490834 0.09643055 26.81121365 0.10936926 29.1875 0.125 C30.3053186 0.12520142 31.42313721 0.12540283 32.5748291 0.12561035 C34.14170471 0.14947815 34.14170471 0.14947815 35.74023438 0.17382812 C37.11326721 0.18645691 37.11326721 0.18645691 38.51403809 0.19934082 C41.63433226 0.676399 43.54257635 1.76301627 46.09375 3.59375 C47.49832737 6.40290474 47.34270157 8.48185534 47.09375 11.59375 C45.31390595 14.7296657 44.57066793 15.43477736 41.09375 16.59375 C39.41778624 16.69603209 37.73811587 16.74217323 36.05908203 16.75488281 C35.03436798 16.76449036 34.00965393 16.7740979 32.95388794 16.78399658 C31.84762054 16.78824646 30.74135315 16.79249634 29.6015625 16.796875 C27.89442581 16.80542511 27.89442581 16.80542511 26.15280151 16.81414795 C23.74364146 16.82359879 21.33446848 16.83013226 18.92529297 16.83398438 C15.24033063 16.84369314 11.55592523 16.87471781 7.87109375 16.90625 C5.53125331 16.91277977 3.19140889 16.91803034 0.8515625 16.921875 C-0.25065643 16.9342218 -1.35287537 16.9465686 -2.48849487 16.95928955 C-3.51951324 16.95628845 -4.55053162 16.95328735 -5.61279297 16.95019531 C-6.51641571 16.95384094 -7.42003845 16.95748657 -8.3510437 16.96124268 C-11.46885977 16.51283482 -13.36085946 15.41830683 -15.90625 13.59375 C-16.7890625 11.7265625 -16.7890625 11.7265625 -17.03125 9.71875 C-17.18980469 8.73261719 -17.18980469 8.73261719 -17.3515625 7.7265625 C-16.80061341 5.08780631 -15.67414776 3.52552124 -13.73751831 1.67184448 C-9.65196253 -0.73338206 -4.5965538 -0.06741855 0 0 Z " fill="#FDEB00" transform="translate(248.90625,319.40625)"/>
<path d="M0 0 C15.84 0 31.68 0 48 0 C46.68 3.3 45.36 6.6 44 10 C39.4375 11.75 39.4375 11.75 36.78515625 12.3125 C25.37023245 15.1302091 16.26848633 23.4013803 10 33 C6.7 32.67 3.4 32.34 0 32 C0 21.44 0 10.88 0 0 Z " fill="#F8CE94" transform="translate(96,320)"/>
<path d="M0 0 C3.98288181 3.18964539 5.64984929 5.76027748 6.86328125 10.8046875 C7.08672164 14.10327967 7.05246526 17.37563111 6.98828125 20.6796875 C6.94703125 23.6909375 6.90578125 26.7021875 6.86328125 29.8046875 C-3.69671875 29.8046875 -14.25671875 29.8046875 -25.13671875 29.8046875 C-25.19859375 26.8140625 -25.26046875 23.8234375 -25.32421875 20.7421875 C-25.35153076 19.81398193 -25.37884277 18.88577637 -25.40698242 17.92944336 C-25.46811396 11.77750692 -24.76990328 6.93642163 -20.671875 2.0625 C-14.515383 -2.67326307 -7.08592101 -3.96397044 0 0 Z " fill="#EEEDEE" transform="translate(313.13671875,90.1953125)"/>
<path d="M0 0 C7.72226999 6.40784105 14.69796461 13.38720871 21.2265625 21.00390625 C24.32528789 24.49167866 27.66344637 27.74144373 31 31 C30.67 31.66 30.34 32.32 30 33 C27.52753705 33.67802856 25.11605218 34.23276573 22.60546875 34.7265625 C21.48982292 34.95537613 21.48982292 34.95537613 20.35163879 35.18881226 C18.77455515 35.51046879 17.19661455 35.82794725 15.61791992 36.14160156 C13.20612548 36.62129548 10.79732584 37.11417922 8.38867188 37.609375 C6.85693006 37.92005692 5.32503361 38.22997756 3.79296875 38.5390625 C3.07304245 38.68590485 2.35311615 38.83274719 1.6113739 38.98403931 C-1.69065247 39.63593434 -4.61541342 40 -8 40 C-7.3286496 32.41374051 -5.92599751 25.0154711 -4.41601562 17.55859375 C-3.99548959 15.47768087 -3.58334865 13.39521969 -3.171875 11.3125 C-2.90674414 9.98948421 -2.64113704 8.66656375 -2.375 7.34375 C-2.13523437 6.14943359 -1.89546875 4.95511719 -1.6484375 3.72460938 C-1 1 -1 1 0 0 Z " fill="#FBE301" transform="translate(320,408)"/>
<path d="M0 0 C7.92 0 15.84 0 24 0 C24 10.56 24 21.12 24 32 C16.08 32 8.16 32 0 32 C0 21.44 0 10.88 0 0 Z " fill="#F9CE95" transform="translate(96,472)"/>
<path d="M0 0 C3.02391552 1.73907588 5.41748661 3.83497322 7 7 C7.58443087 11.84242724 7.56798489 14.79803112 4.6875 18.8125 C3.49123164 20.236629 2.25634106 21.62857427 1 23 C0.36481445 23.7125293 0.36481445 23.7125293 -0.28320312 24.43945312 C-1.68792076 26.00222619 -3.11905515 27.53547579 -4.5625 29.0625 C-5.02116455 29.56434814 -5.4798291 30.06619629 -5.95239258 30.58325195 C-8.04178725 32.71153996 -9.39316182 33.94501143 -12.4140625 34.21875 C-16.30592591 32.3845183 -18.88231114 29.53755488 -21.8125 26.4375 C-22.40998047 25.82197266 -23.00746094 25.20644531 -23.62304688 24.57226562 C-25.0912621 23.05706751 -26.54689553 21.52969562 -28 20 C-26.61870485 16.89774696 -25.02060936 14.76399387 -22.62890625 12.36328125 C-21.97212891 11.70392578 -21.31535156 11.04457031 -20.63867188 10.36523438 C-19.95353516 9.68783203 -19.26839844 9.01042969 -18.5625 8.3125 C-17.5405957 7.27899414 -17.5405957 7.27899414 -16.49804688 6.22460938 C-15.51094727 5.24137695 -15.51094727 5.24137695 -14.50390625 4.23828125 C-13.60393921 3.341698 -13.60393921 3.341698 -12.68579102 2.42700195 C-9.11211274 -0.59807401 -4.466787 -0.7753668 0 0 Z " fill="#FEEA00" transform="translate(476,261)"/>
<path d="M0 0 C1.64597847 3.29195693 2.70051092 6.13590912 3.75 9.625 C8.53197498 24.2020241 17.45690595 34.17856976 30.80859375 41.55078125 C36.73023993 44.39821112 42.50504586 46.05604788 49 47 C49 47.33 49 47.66 49 48 C32.83 48 16.66 48 0 48 C0 32.16 0 16.32 0 0 Z " fill="#F9CE92" transform="translate(96,392)"/>
<path d="M0 0 C2 3 2 3 3.3125 5.9375 C5.81190214 10.47345204 8.49791138 12.4331741 13.3125 14.25 C14.199375 14.4975 15.08625 14.745 16 15 C11.47008204 20.43733055 6.65705784 25.46458931 1.625 30.4375 C0.88894531 31.16904297 0.15289062 31.90058594 -0.60546875 32.65429688 C-2.40136074 34.43852723 -4.19955985 36.22036124 -6 38 C-8.81878012 36.71825282 -10.85241496 35.38992385 -13.015625 33.1796875 C-13.54414063 32.64472656 -14.07265625 32.10976563 -14.6171875 31.55859375 C-15.15601563 31.00300781 -15.69484375 30.44742187 -16.25 29.875 C-16.80429687 29.31167969 -17.35859375 28.74835938 -17.9296875 28.16796875 C-19.29104485 26.78313972 -20.64614859 25.39216796 -22 24 C-20.4608199 20.33247995 -18.24514548 18.01419427 -15.4296875 15.234375 C-14.08583984 13.90019531 -14.08583984 13.90019531 -12.71484375 12.5390625 C-11.77769531 11.61867188 -10.84054687 10.69828125 -9.875 9.75 C-8.92011363 8.80515144 -7.96568141 7.85984367 -7.01171875 6.9140625 C-4.67890913 4.60481662 -2.34155914 2.30036797 0 0 Z " fill="#E22526" transform="translate(343,385)"/>
<path d="M0 0 C5.33333333 5.33333333 10.66666667 10.66666667 16 16 C15.67 16.66 15.34 17.32 15 18 C12.52753705 18.67802856 10.11605218 19.23276573 7.60546875 19.7265625 C6.48982292 19.95537613 6.48982292 19.95537613 5.35163879 20.18881226 C3.77455515 20.51046879 2.19661455 20.82794725 0.61791992 21.14160156 C-1.79387452 21.62129548 -4.20267416 22.11417922 -6.61132812 22.609375 C-8.14306994 22.92005692 -9.67496639 23.22997756 -11.20703125 23.5390625 C-11.92695755 23.68590485 -12.64688385 23.83274719 -13.3886261 23.98403931 C-16.69065247 24.63593434 -19.61541342 25 -23 25 C-22.67 23.68 -22.34 22.36 -22 21 C-21.67 21.66 -21.34 22.32 -21 23 C-18.1635971 20.21305818 -15.33382309 17.41957183 -12.51000977 14.61987305 C-11.54859153 13.66850843 -10.58538536 12.71894709 -9.62036133 11.77124023 C-8.2330945 10.40824879 -6.85277672 9.03819589 -5.47265625 7.66796875 C-4.64000244 6.84578857 -3.80734863 6.0236084 -2.94946289 5.17651367 C-0.80236105 3.06940381 -0.80236105 3.06940381 0 0 Z " fill="#FAC100" transform="translate(335,423)"/>
</svg>
